<svg width="800" height="400" viewBox="0 0 800 400" xmlns="http://www.w3.org/2000/svg"><defs><pattern id="satori_pattern_id_0" x="0" y="0" width="1" height="1" patternUnits="objectBoundingBox"><linearGradient id="satori_biid_0" x1="0" y1="1" x2="1" y2="0" spreadMethod="pad"><stop offset="0%" stop-color="#DC2626"/><stop offset="100%" stop-color="#171f4a"/></linearGradient><rect x="0" y="0" width="800" height="400" fill="url(#satori_biid_0)"/></pattern></defs><mask id="satori_om-id"><rect x="0" y="0" width="800" height="400" fill="#fff"/></mask><rect x="0" y="0" width="800" height="400" fill="url(#satori_pattern_id_0)"/><mask id="satori_om-id-0"><rect x="459" y="156" width="296" height="51" fill="#fff"/></mask><path fill="white" d="M474.7 196.7L461.7 196.7L461.7 166.1L473.9 166.1Q477.3 166.1 479.5 167.1Q481.8 168.1 482.9 169.9Q484.0 171.7 484.0 174.0L484.0 174.0Q484.0 175.8 483.3 177.1Q482.6 178.5 481.3 179.3Q480.1 180.2 478.5 180.5L478.5 180.5L478.5 180.8Q480.3 180.9 481.8 181.8Q483.3 182.7 484.3 184.4Q485.2 186.0 485.2 188.2L485.2 188.2Q485.2 190.7 484.0 192.6Q482.8 194.5 480.5 195.6Q478.1 196.7 474.7 196.7L474.7 196.7ZM468.1 183.3L468.1 191.4L473.4 191.4Q476.1 191.4 477.3 190.4Q478.6 189.3 478.6 187.6L478.6 187.6Q478.6 186.3 477.9 185.4Q477.3 184.4 476.2 183.8Q475.1 183.3 473.5 183.3L473.5 183.3L468.1 183.3ZM468.1 171.4L468.1 178.9L472.9 178.9Q474.2 178.9 475.3 178.5Q476.3 178.0 476.9 177.1Q477.5 176.3 477.5 175.0L477.5 175.0Q477.5 173.4 476.3 172.4Q475.2 171.4 473.0 171.4L473.0 171.4L468.1 171.4ZM499.6 197.1L499.6 197.1Q496.2 197.1 493.6 195.7Q491.1 194.2 489.7 191.5Q488.4 188.8 488.4 185.3L488.4 185.3Q488.4 181.8 489.7 179.1Q491.1 176.4 493.6 175.0Q496.2 173.5 499.6 173.5L499.6 173.5Q503.1 173.5 505.6 175.0Q508.2 176.4 509.5 179.1Q510.9 181.8 510.9 185.3L510.9 185.3Q510.9 188.8 509.5 191.5Q508.2 194.2 505.6 195.7Q503.1 197.1 499.6 197.1ZM499.7 192.2L499.7 192.2Q501.3 192.2 502.3 191.3Q503.4 190.4 503.9 188.8Q504.5 187.3 504.5 185.3L504.5 185.3Q504.5 183.3 503.9 181.7Q503.4 180.1 502.3 179.2Q501.3 178.3 499.7 178.3L499.7 178.3Q498.1 178.3 497.0 179.2Q495.9 180.1 495.4 181.7Q494.8 183.3 494.8 185.3L494.8 185.3Q494.8 187.3 495.4 188.8Q495.9 190.4 497.0 191.3Q498.1 192.2 499.7 192.2ZM521.4 196.7L515.1 196.7L515.1 173.8L521.2 173.8L521.2 177.8L521.5 177.8Q522.1 175.6 523.6 174.5Q525.0 173.5 527.0 173.5L527.0 173.5Q527.4 173.5 528.0 173.5Q528.5 173.6 529.0 173.7L529.0 173.7L529.0 179.3Q528.5 179.2 527.7 179.1Q526.9 179.0 526.3 179.0L526.3 179.0Q524.9 179.0 523.8 179.6Q522.7 180.2 522.1 181.3Q521.4 182.3 521.4 183.7L521.4 183.7L521.4 196.7ZM538.6 196.7L532.2 196.7L532.2 173.8L538.6 173.8L538.6 196.7ZM535.4 170.8L535.4 170.8Q534.0 170.8 533.0 169.9Q532.0 168.9 532.0 167.6L532.0 167.6Q532.0 166.3 533.0 165.3Q534.0 164.4 535.4 164.4L535.4 164.4Q536.8 164.4 537.8 165.3Q538.9 166.3 538.9 167.6L538.9 167.6Q538.9 168.9 537.8 169.9Q536.8 170.8 535.4 170.8ZM562.7 180.3L562.7 180.3L556.9 180.7Q556.8 179.9 556.3 179.3Q555.8 178.7 555.0 178.3Q554.2 178.0 553.1 178.0L553.1 178.0Q551.6 178.0 550.6 178.6Q549.6 179.2 549.6 180.3L549.6 180.3Q549.6 181.1 550.2 181.6Q550.9 182.2 552.5 182.5L552.5 182.5L556.6 183.4Q560.0 184.1 561.6 185.6Q563.2 187.1 563.2 189.6L563.2 189.6Q563.2 191.8 561.9 193.5Q560.6 195.2 558.3 196.2Q556.0 197.1 553.0 197.1L553.0 197.1Q548.5 197.1 545.8 195.2Q543.1 193.3 542.6 190.1L542.6 190.1L548.9 189.7Q549.2 191.1 550.3 191.8Q551.4 192.6 553.1 192.6L553.1 192.6Q554.7 192.6 555.7 191.9Q556.8 191.3 556.8 190.2L556.8 190.2Q556.8 189.4 556.1 188.8Q555.3 188.2 553.8 187.9L553.8 187.9L549.9 187.2Q546.5 186.5 544.9 184.8Q543.3 183.2 543.3 180.6L543.3 180.6Q543.3 178.4 544.5 176.8Q545.7 175.2 547.8 174.3Q550.0 173.5 553.0 173.5L553.0 173.5Q557.3 173.5 559.8 175.3Q562.3 177.1 562.7 180.3Z M603.9 176.0L597.4 176.0Q597.1 174.9 596.5 174.1Q595.9 173.2 595.1 172.7Q594.3 172.1 593.3 171.8Q592.2 171.4 591.0 171.4L591.0 171.4Q588.6 171.4 586.9 172.6Q585.1 173.8 584.1 176.0Q583.1 178.2 583.1 181.4L583.1 181.4Q583.1 184.6 584.1 186.8Q585.1 189.1 586.8 190.2Q588.6 191.4 591.0 191.4L591.0 191.4Q593.2 191.4 594.8 190.6Q596.3 189.8 597.2 188.4Q598.0 187.0 598.0 185.0L598.0 185.0L599.3 185.2L591.4 185.2L591.4 180.3L604.2 180.3L604.2 184.2Q604.2 188.2 602.5 191.1Q600.8 194.0 597.8 195.5Q594.8 197.1 591.0 197.1L591.0 197.1Q586.7 197.1 583.4 195.2Q580.2 193.3 578.4 189.8Q576.6 186.3 576.6 181.4L576.6 181.4Q576.6 177.7 577.7 174.8Q578.7 171.9 580.7 169.9Q582.6 167.8 585.2 166.8Q587.8 165.7 590.9 165.7L590.9 165.7Q593.5 165.7 595.7 166.5Q597.9 167.2 599.7 168.6Q601.4 170.0 602.5 171.9Q603.6 173.7 603.9 176.0L603.9 176.0ZM615.3 196.7L608.9 196.7L608.9 173.8L615.1 173.8L615.1 177.8L615.3 177.8Q616.0 175.6 617.4 174.5Q618.9 173.5 620.8 173.5L620.8 173.5Q621.3 173.5 621.9 173.5Q622.4 173.6 622.8 173.7L622.8 173.7L622.8 179.3Q622.4 179.2 621.6 179.1Q620.8 179.0 620.2 179.0L620.2 179.0Q618.8 179.0 617.7 179.6Q616.6 180.2 615.9 181.3Q615.3 182.3 615.3 183.7L615.3 183.7L615.3 196.7ZM632.5 196.7L626.1 196.7L626.1 173.8L632.5 173.8L632.5 196.7ZM629.3 170.8L629.3 170.8Q627.9 170.8 626.9 169.9Q625.9 168.9 625.9 167.6L625.9 167.6Q625.9 166.3 626.9 165.3Q627.9 164.4 629.3 164.4L629.3 164.4Q630.7 164.4 631.7 165.3Q632.7 166.3 632.7 167.6L632.7 167.6Q632.7 168.9 631.7 169.9Q630.7 170.8 629.3 170.8ZM647.9 205.8L647.9 205.8Q644.8 205.8 642.6 204.9Q640.4 204.1 639.1 202.6Q637.8 201.2 637.4 199.4L637.4 199.4L643.3 198.6Q643.5 199.3 644.1 199.9Q644.7 200.5 645.7 200.8Q646.6 201.2 648 201.2L648 201.2Q650.1 201.2 651.4 200.2Q652.8 199.2 652.8 196.8L652.8 196.8L652.8 192.6L652.5 192.6Q652.1 193.6 651.3 194.4Q650.4 195.3 649.1 195.8Q647.8 196.4 646.0 196.4L646.0 196.4Q643.4 196.4 641.3 195.2Q639.2 194.0 637.9 191.5Q636.7 189.0 636.7 185.2L636.7 185.2Q636.7 181.3 637.9 178.7Q639.2 176.1 641.3 174.8Q643.4 173.5 646.0 173.5L646.0 173.5Q647.9 173.5 649.2 174.1Q650.5 174.8 651.3 175.7Q652.1 176.7 652.5 177.6L652.5 177.6L652.7 177.6L652.7 173.8L659.1 173.8L659.1 196.9Q659.1 199.8 657.6 201.8Q656.2 203.8 653.7 204.8Q651.1 205.8 647.9 205.8ZM648.0 191.6L648.0 191.6Q649.5 191.6 650.6 190.8Q651.7 190.1 652.2 188.6Q652.8 187.2 652.8 185.2L652.8 185.2Q652.8 183.1 652.2 181.7Q651.7 180.2 650.6 179.4Q649.5 178.5 648.0 178.5L648.0 178.5Q646.4 178.5 645.3 179.4Q644.3 180.2 643.7 181.7Q643.2 183.2 643.2 185.2L643.2 185.2Q643.2 187.1 643.7 188.6Q644.3 190.0 645.4 190.8Q646.4 191.6 648.0 191.6ZM674.5 197.1L674.5 197.1Q671.0 197.1 668.5 195.7Q665.9 194.2 664.6 191.5Q663.2 188.8 663.2 185.3L663.2 185.3Q663.2 181.8 664.6 179.1Q665.9 176.4 668.5 175.0Q671.0 173.5 674.5 173.5L674.5 173.5Q677.9 173.5 680.5 175.0Q683.0 176.4 684.4 179.1Q685.7 181.8 685.7 185.3L685.7 185.3Q685.7 188.8 684.4 191.5Q683.0 194.2 680.5 195.7Q677.9 197.1 674.5 197.1ZM674.5 192.2L674.5 192.2Q676.1 192.2 677.1 191.3Q678.2 190.4 678.7 188.8Q679.3 187.3 679.3 185.3L679.3 185.3Q679.3 183.3 678.7 181.7Q678.2 180.1 677.1 179.2Q676.1 178.3 674.5 178.3L674.5 178.3Q672.9 178.3 671.8 179.2Q670.7 180.1 670.2 181.7Q669.7 183.3 669.7 185.3L669.7 185.3Q669.7 187.3 670.2 188.8Q670.7 190.4 671.8 191.3Q672.9 192.2 674.5 192.2ZM696.2 196.7L689.9 196.7L689.9 173.8L696.1 173.8L696.1 177.8L696.3 177.8Q696.9 175.6 698.4 174.5Q699.9 173.5 701.8 173.5L701.8 173.5Q702.3 173.5 702.8 173.5Q703.4 173.6 703.8 173.7L703.8 173.7L703.8 179.3Q703.3 179.2 702.6 179.1Q701.8 179.0 701.1 179.0L701.1 179.0Q699.7 179.0 698.6 179.6Q697.5 180.2 696.9 181.3Q696.2 182.3 696.2 183.7L696.2 183.7L696.2 196.7ZM716.3 197.1L716.3 197.1Q712.9 197.1 710.3 195.7Q707.8 194.2 706.4 191.5Q705.1 188.8 705.1 185.3L705.1 185.3Q705.1 181.8 706.4 179.1Q707.8 176.4 710.3 175.0Q712.9 173.5 716.3 173.5L716.3 173.5Q719.8 173.5 722.3 175.0Q724.9 176.4 726.2 179.1Q727.6 181.8 727.6 185.3L727.6 185.3Q727.6 188.8 726.2 191.5Q724.9 194.2 722.3 195.7Q719.8 197.1 716.3 197.1ZM716.4 192.2L716.4 192.2Q718.0 192.2 719.0 191.3Q720.1 190.4 720.6 188.8Q721.2 187.3 721.2 185.3L721.2 185.3Q721.2 183.3 720.6 181.7Q720.1 180.1 719.0 179.2Q718.0 178.3 716.4 178.3L716.4 178.3Q714.8 178.3 713.7 179.2Q712.6 180.1 712.1 181.7Q711.5 183.3 711.5 185.3L711.5 185.3Q711.5 187.3 712.1 188.8Q712.6 190.4 713.7 191.3Q714.8 192.2 716.4 192.2ZM745.6 173.8L752.4 173.8L744.3 196.7L737.2 196.7L729.2 173.8L735.9 173.8L740.7 190.2L740.9 190.2L745.6 173.8Z "/><mask id="satori_om-id-1"><rect x="517" y="219" width="238" height="25" fill="#fff"/></mask><path fill="white" d="M529.1 228.0L526.2 228.0Q526.1 227.2 525.4 226.7Q524.8 226.2 523.7 226.2L523.7 226.2Q522.9 226.2 522.4 226.4Q521.9 226.6 521.6 227.0Q521.3 227.4 521.3 227.8L521.3 227.8Q521.3 228.2 521.5 228.5Q521.7 228.8 522 229.0Q522.3 229.2 522.7 229.4Q523.2 229.5 523.6 229.6L523.6 229.6L524.9 229.9Q525.9 230.2 526.7 230.5Q527.5 230.9 528.1 231.4Q528.6 231.9 529.0 232.6Q529.3 233.3 529.3 234.2L529.3 234.2Q529.3 235.6 528.6 236.5Q528.0 237.5 526.7 238.0Q525.4 238.6 523.7 238.6L523.7 238.6Q521.9 238.6 520.6 238.0Q519.3 237.5 518.6 236.4Q517.8 235.4 517.8 233.8L517.8 233.8L520.8 233.8Q520.8 234.5 521.2 235.0Q521.6 235.5 522.2 235.8Q522.8 236.0 523.6 236.0L523.6 236.0Q524.4 236.0 525.0 235.8Q525.6 235.5 525.9 235.1Q526.2 234.7 526.2 234.2L526.2 234.2Q526.2 233.7 525.9 233.4Q525.6 233.1 525.1 232.8Q524.5 232.6 523.7 232.4L523.7 232.4L522.1 232.0Q520.3 231.5 519.2 230.6Q518.2 229.6 518.2 228.0L518.2 228.0Q518.2 226.7 518.9 225.7Q519.6 224.7 520.8 224.2Q522.1 223.6 523.7 223.6L523.7 223.6Q525.3 223.6 526.5 224.2Q527.7 224.7 528.4 225.7Q529.1 226.7 529.1 228.0L529.1 228.0ZM536.2 238.6L536.2 238.6Q534.6 238.6 533.4 237.9Q532.2 237.2 531.5 235.9Q530.9 234.6 530.9 233.0L530.9 233.0Q530.9 231.3 531.5 230.0Q532.2 228.7 533.4 228.0Q534.6 227.3 536.2 227.3L536.2 227.3Q537.9 227.3 539.1 228.0Q540.3 228.7 540.9 230.0Q541.6 231.3 541.6 233.0L541.6 233.0Q541.6 234.6 540.9 235.9Q540.3 237.2 539.1 237.9Q537.9 238.6 536.2 238.6ZM536.2 236.2L536.2 236.2Q537 236.2 537.5 235.8Q538.0 235.4 538.3 234.6Q538.5 233.9 538.5 232.9L538.5 232.9Q538.5 232.0 538.3 231.2Q538.0 230.5 537.5 230.1Q537 229.6 536.2 229.6L536.2 229.6Q535.5 229.6 535.0 230.1Q534.5 230.5 534.2 231.2Q533.9 232.0 533.9 232.9L533.9 232.9Q533.9 233.9 534.2 234.6Q534.5 235.4 535.0 235.8Q535.5 236.2 536.2 236.2ZM542.7 227.5L549.4 227.5L549.4 229.7L542.7 229.7L542.7 227.5ZM547.3 238.4L544.3 238.4L544.3 226.7Q544.3 225.5 544.7 224.7Q545.2 223.9 546.0 223.5Q546.8 223.1 547.8 223.1L547.8 223.1Q548.5 223.1 549.1 223.3Q549.7 223.4 550.0 223.4L550.0 223.4L549.4 225.7Q549.3 225.7 549.0 225.6Q548.7 225.6 548.5 225.6L548.5 225.6Q547.8 225.6 547.5 225.9Q547.3 226.2 547.3 226.7L547.3 226.7L547.3 238.4ZM550.5 227.5L557.1 227.5L557.1 229.7L550.5 229.7L550.5 227.5ZM552.0 235.4L552.0 224.9L555.0 224.9L555.0 235.0Q555.0 235.4 555.2 235.7Q555.3 235.9 555.5 236.0Q555.8 236.1 556.1 236.1L556.1 236.1Q556.3 236.1 556.5 236.0Q556.7 236.0 556.8 236.0L556.8 236.0L557.3 238.2Q557.1 238.3 556.7 238.4Q556.2 238.5 555.7 238.5L555.7 238.5Q554.6 238.6 553.7 238.2Q552.9 237.9 552.5 237.2Q552.0 236.5 552.0 235.4L552.0 235.4ZM564.4 238.4L561.2 238.4L558.2 227.5L561.3 227.5L563.0 234.8L563.1 234.8L564.9 227.5L567.9 227.5L569.6 234.8L569.7 234.8L571.4 227.5L574.5 227.5L571.5 238.4L568.3 238.4L566.4 231.5L566.3 231.5L564.4 238.4ZM579.2 238.6L579.2 238.6Q578.1 238.6 577.3 238.2Q576.5 237.8 576.0 237.1Q575.6 236.4 575.6 235.3L575.6 235.3Q575.6 234.4 575.9 233.8Q576.2 233.2 576.8 232.8Q577.4 232.4 578.1 232.2Q578.8 232.0 579.6 232.0L579.6 232.0Q580.6 231.9 581.2 231.8Q581.8 231.7 582.0 231.5Q582.3 231.3 582.3 231.0L582.3 231.0L582.3 230.9Q582.3 230.3 581.9 229.9Q581.4 229.5 580.7 229.5L580.7 229.5Q579.9 229.5 579.4 229.9Q578.9 230.3 578.7 230.8L578.7 230.8L575.9 230.6Q576.1 229.6 576.8 228.8Q577.4 228.1 578.4 227.7Q579.4 227.3 580.7 227.3L580.7 227.3Q581.6 227.3 582.4 227.5Q583.3 227.8 583.9 228.2Q584.6 228.6 584.9 229.3Q585.3 230.0 585.3 231.0L585.3 231.0L585.3 238.4L582.4 238.4L582.4 236.9L582.4 236.9Q582.1 237.4 581.7 237.8Q581.2 238.1 580.6 238.4Q580.0 238.6 579.2 238.6ZM580.0 236.5L580.0 236.5Q580.7 236.5 581.2 236.2Q581.7 236.0 582.0 235.5Q582.3 235.1 582.3 234.5L582.3 234.5L582.3 233.3Q582.2 233.4 581.9 233.5Q581.7 233.6 581.4 233.6Q581.1 233.7 580.8 233.7Q580.5 233.8 580.2 233.8L580.2 233.8Q579.7 233.9 579.3 234.1Q578.9 234.2 578.7 234.5Q578.4 234.8 578.4 235.2L578.4 235.2Q578.4 235.8 578.9 236.2Q579.3 236.5 580.0 236.5ZM590.7 238.4L587.7 238.4L587.7 227.5L590.6 227.5L590.6 229.4L590.7 229.4Q591.0 228.4 591.7 227.8Q592.4 227.3 593.3 227.3L593.3 227.3Q593.6 227.3 593.8 227.3Q594.1 227.4 594.3 227.4L594.3 227.4L594.3 230.1Q594.1 230.0 593.7 230.0Q593.3 229.9 593.0 229.9L593.0 229.9Q592.3 229.9 591.8 230.2Q591.3 230.5 591.0 231.0Q590.7 231.5 590.7 232.2L590.7 232.2L590.7 238.4ZM600.3 238.6L600.3 238.6Q598.6 238.6 597.4 237.9Q596.2 237.2 595.5 236.0Q594.9 234.7 594.9 233.0L594.9 233.0Q594.9 231.3 595.5 230.0Q596.2 228.7 597.4 228.0Q598.6 227.3 600.2 227.3L600.2 227.3Q601.3 227.3 602.2 227.7Q603.1 228.0 603.8 228.7Q604.5 229.4 604.9 230.4Q605.3 231.5 605.3 232.9L605.3 232.9L605.3 233.7L596.1 233.7L596.1 231.8L602.5 231.8Q602.5 231.2 602.2 230.7Q601.9 230.2 601.4 229.9Q600.9 229.6 600.2 229.6L600.2 229.6Q599.5 229.6 599.0 229.9Q598.5 230.2 598.2 230.7Q597.9 231.3 597.9 231.9L597.9 231.9L597.9 233.7Q597.9 234.5 598.2 235.1Q598.5 235.7 599.0 236.0Q599.6 236.3 600.4 236.3L600.4 236.3Q600.9 236.3 601.3 236.2Q601.7 236.0 602.0 235.8Q602.3 235.5 602.4 235.1L602.4 235.1L605.2 235.3Q605.0 236.3 604.4 237.0Q603.7 237.8 602.7 238.2Q601.7 238.6 600.3 238.6Z M617.6 238.4L617.6 238.4L612.5 238.4L612.5 223.8L617.7 223.8Q619.9 223.8 621.5 224.7Q623.1 225.6 623.9 227.2Q624.8 228.8 624.8 231.1L624.8 231.1Q624.8 233.4 623.9 235.0Q623.1 236.6 621.5 237.5Q619.9 238.4 617.6 238.4ZM615.6 226.5L615.6 235.7L617.5 235.7Q618.9 235.7 619.8 235.3Q620.8 234.8 621.2 233.7Q621.7 232.7 621.7 231.1L621.7 231.1Q621.7 229.5 621.2 228.5Q620.8 227.4 619.8 226.9Q618.9 226.5 617.5 226.5L617.5 226.5L615.6 226.5ZM632.0 238.6L632.0 238.6Q630.3 238.6 629.1 237.9Q627.8 237.2 627.2 236.0Q626.5 234.7 626.5 233.0L626.5 233.0Q626.5 231.3 627.2 230.0Q627.8 228.7 629.0 228.0Q630.2 227.3 631.8 227.3L631.8 227.3Q632.9 227.3 633.8 227.7Q634.8 228.0 635.5 228.7Q636.2 229.4 636.6 230.4Q637.0 231.5 637.0 232.9L637.0 232.9L637.0 233.7L627.7 233.7L627.7 231.8L634.1 231.8Q634.1 231.2 633.8 230.7Q633.5 230.2 633.0 229.9Q632.5 229.6 631.9 229.6L631.9 229.6Q631.2 229.6 630.7 229.9Q630.1 230.2 629.8 230.7Q629.5 231.3 629.5 231.9L629.5 231.9L629.5 233.7Q629.5 234.5 629.8 235.1Q630.1 235.7 630.7 236.0Q631.2 236.3 632.0 236.3L632.0 236.3Q632.5 236.3 632.9 236.2Q633.3 236.0 633.6 235.8Q633.9 235.5 634.1 235.1L634.1 235.1L636.9 235.3Q636.7 236.3 636.0 237.0Q635.4 237.8 634.3 238.2Q633.3 238.6 632.0 238.6ZM645.6 227.5L648.8 227.5L645.0 238.4L641.6 238.4L637.8 227.5L641.0 227.5L643.2 235.3L643.3 235.3L645.6 227.5ZM655.0 238.6L655.0 238.6Q653.3 238.6 652.1 237.9Q650.8 237.2 650.2 236.0Q649.5 234.7 649.5 233.0L649.5 233.0Q649.5 231.3 650.2 230.0Q650.8 228.7 652.0 228.0Q653.2 227.3 654.8 227.3L654.8 227.3Q655.9 227.3 656.8 227.7Q657.8 228.0 658.5 228.7Q659.2 229.4 659.6 230.4Q660.0 231.5 660.0 232.9L660.0 232.9L660.0 233.7L650.8 233.7L650.8 231.8L657.1 231.8Q657.1 231.2 656.8 230.7Q656.5 230.2 656.0 229.9Q655.5 229.6 654.9 229.6L654.9 229.6Q654.2 229.6 653.7 229.9Q653.1 230.2 652.8 230.7Q652.5 231.3 652.5 231.9L652.5 231.9L652.5 233.7Q652.5 234.5 652.8 235.1Q653.1 235.7 653.7 236.0Q654.2 236.3 655.0 236.3L655.0 236.3Q655.5 236.3 655.9 236.2Q656.3 236.0 656.6 235.8Q656.9 235.5 657.1 235.1L657.1 235.1L659.9 235.3Q659.7 236.3 659.0 237.0Q658.4 237.8 657.3 238.2Q656.3 238.6 655.0 238.6ZM661.9 223.8L665.0 223.8L665.0 238.4L661.9 238.4L661.9 223.8ZM672.3 238.6L672.3 238.6Q670.7 238.6 669.4 237.9Q668.2 237.2 667.6 235.9Q666.9 234.6 666.9 233.0L666.9 233.0Q666.9 231.3 667.6 230.0Q668.2 228.7 669.4 228.0Q670.7 227.3 672.3 227.3L672.3 227.3Q674.0 227.3 675.2 228.0Q676.4 228.7 677.0 230.0Q677.7 231.3 677.7 233.0L677.7 233.0Q677.7 234.6 677.0 235.9Q676.4 237.2 675.2 237.9Q674.0 238.6 672.3 238.6ZM672.3 236.2L672.3 236.2Q673.1 236.2 673.6 235.8Q674.1 235.4 674.3 234.6Q674.6 233.9 674.6 232.9L674.6 232.9Q674.6 232.0 674.3 231.2Q674.1 230.5 673.6 230.1Q673.1 229.6 672.3 229.6L672.3 229.6Q671.6 229.6 671.0 230.1Q670.5 230.5 670.3 231.2Q670.0 232.0 670.0 232.9L670.0 232.9Q670.0 233.9 670.3 234.6Q670.5 235.4 671.0 235.8Q671.6 236.2 672.3 236.2ZM682.7 242.5L679.6 242.5L679.6 227.5L682.6 227.5L682.6 229.3L682.8 229.3Q683.0 228.9 683.3 228.4Q683.7 227.9 684.3 227.6Q685.0 227.3 685.9 227.3L685.9 227.3Q687.1 227.3 688.1 227.9Q689.1 228.6 689.7 229.8Q690.3 231.1 690.3 232.9L690.3 232.9Q690.3 234.8 689.7 236.0Q689.1 237.3 688.1 237.9Q687.1 238.6 685.9 238.6L685.9 238.6Q685.0 238.6 684.4 238.3Q683.8 238.0 683.4 237.5Q683.0 237.1 682.8 236.6L682.8 236.6L682.7 236.6L682.7 242.5ZM682.6 232.9L682.6 232.9Q682.6 233.9 682.9 234.6Q683.2 235.3 683.7 235.7Q684.2 236.1 684.9 236.1L684.9 236.1Q685.6 236.1 686.2 235.7Q686.7 235.3 686.9 234.6Q687.2 233.9 687.2 232.9L687.2 232.9Q687.2 232.0 686.9 231.3Q686.7 230.5 686.2 230.1Q685.7 229.7 684.9 229.7L684.9 229.7Q684.2 229.7 683.7 230.1Q683.2 230.5 682.9 231.2Q682.6 231.9 682.6 232.9ZM697.3 238.6L697.3 238.6Q695.6 238.6 694.4 237.9Q693.2 237.2 692.5 236.0Q691.9 234.7 691.9 233.0L691.9 233.0Q691.9 231.3 692.5 230.0Q693.2 228.7 694.4 228.0Q695.5 227.3 697.1 227.3L697.1 227.3Q698.2 227.3 699.2 227.7Q700.1 228.0 700.8 228.7Q701.5 229.4 701.9 230.4Q702.3 231.5 702.3 232.9L702.3 232.9L702.3 233.7L693.1 233.7L693.1 231.8L699.4 231.8Q699.4 231.2 699.1 230.7Q698.9 230.2 698.4 229.9Q697.9 229.6 697.2 229.6L697.2 229.6Q696.5 229.6 696.0 229.9Q695.5 230.2 695.2 230.7Q694.9 231.3 694.8 231.9L694.8 231.9L694.8 233.7Q694.8 234.5 695.1 235.1Q695.5 235.7 696.0 236.0Q696.6 236.3 697.3 236.3L697.3 236.3Q697.8 236.3 698.2 236.2Q698.7 236.0 699.0 235.8Q699.3 235.5 699.4 235.1L699.4 235.1L702.2 235.3Q702.0 236.3 701.3 237.0Q700.7 237.8 699.7 238.2Q698.6 238.6 697.3 238.6ZM707.3 238.4L704.3 238.4L704.3 227.5L707.1 227.5L707.1 229.4L707.3 229.4Q707.6 228.4 708.4 227.9Q709.2 227.3 710.3 227.3L710.3 227.3Q711.4 227.3 712.2 227.9Q713.0 228.4 713.3 229.4L713.3 229.4L713.4 229.4Q713.7 228.5 714.6 227.9Q715.5 227.3 716.7 227.3L716.7 227.3Q718.2 227.3 719.1 228.3Q720.1 229.3 720.1 231.0L720.1 231.0L720.1 238.4L717.1 238.4L717.1 231.6Q717.1 230.7 716.6 230.3Q716.1 229.8 715.4 229.8L715.4 229.8Q714.6 229.8 714.1 230.3Q713.6 230.9 713.6 231.7L713.6 231.7L713.6 238.4L710.7 238.4L710.7 231.6Q710.7 230.8 710.3 230.3Q709.8 229.8 709.1 229.8L709.1 229.8Q708.5 229.8 708.1 230.1Q707.7 230.3 707.5 230.8Q707.3 231.2 707.3 231.8L707.3 231.8L707.3 238.4ZM727.5 238.6L727.5 238.6Q725.8 238.6 724.6 237.9Q723.4 237.2 722.7 236.0Q722.0 234.7 722.0 233.0L722.0 233.0Q722.0 231.3 722.7 230.0Q723.4 228.7 724.5 228.0Q725.7 227.3 727.3 227.3L727.3 227.3Q728.4 227.3 729.4 227.7Q730.3 228.0 731.0 228.7Q731.7 229.4 732.1 230.4Q732.5 231.5 732.5 232.9L732.5 232.9L732.5 233.7L723.3 233.7L723.3 231.8L729.6 231.8Q729.6 231.2 729.3 230.7Q729.1 230.2 728.6 229.9Q728.1 229.6 727.4 229.6L727.4 229.6Q726.7 229.6 726.2 229.9Q725.6 230.2 725.3 230.7Q725.0 231.3 725.0 231.9L725.0 231.9L725.0 233.7Q725.0 234.5 725.3 235.1Q725.6 235.7 726.2 236.0Q726.8 236.3 727.5 236.3L727.5 236.3Q728.0 236.3 728.4 236.2Q728.9 236.0 729.2 235.8Q729.5 235.5 729.6 235.1L729.6 235.1L732.4 235.3Q732.2 236.3 731.5 237.0Q730.9 237.8 729.8 238.2Q728.8 238.6 727.5 238.6ZM737.5 232.1L737.5 232.1L737.5 238.4L734.4 238.4L734.4 227.5L737.3 227.5L737.3 229.4L737.5 229.4Q737.8 228.4 738.7 227.9Q739.5 227.3 740.7 227.3L740.7 227.3Q741.9 227.3 742.7 227.8Q743.6 228.3 744.0 229.2Q744.5 230.2 744.5 231.4L744.5 231.4L744.5 238.4L741.5 238.4L741.5 232.0Q741.5 231.0 741.0 230.4Q740.4 229.8 739.5 229.8L739.5 229.8Q738.9 229.8 738.5 230.1Q738.0 230.4 737.7 230.9Q737.5 231.4 737.5 232.1ZM746.1 227.5L752.7 227.5L752.7 229.7L746.1 229.7L746.1 227.5ZM747.6 235.4L747.6 224.9L750.6 224.9L750.6 235.0Q750.6 235.4 750.8 235.7Q750.9 235.9 751.1 236.0Q751.3 236.1 751.7 236.1L751.7 236.1Q751.9 236.1 752.1 236.0Q752.3 236.0 752.4 236.0L752.4 236.0L752.9 238.2Q752.7 238.3 752.2 238.4Q751.8 238.5 751.2 238.5L751.2 238.5Q750.1 238.6 749.3 238.2Q748.5 237.9 748.1 237.2Q747.6 236.5 747.6 235.4L747.6 235.4Z "/></svg>